<svg width="20" height="20" viewBox="0 0 20 20" fill="none" xmlns="http://www.w3.org/2000/svg">
<path d="M10 19C14.9706 19 19 14.9706 19 10C19 5.02944 14.9706 1 10 1C5.02944 1 1 5.02944 1 10C1 14.9706 5.02944 19 10 19Z" fill="#F0F0F0"/>
<path d="M2.86048 4.52063C2.15353 5.44043 1.62045 6.50056 1.31006 7.65225H5.9921L2.86048 4.52063ZM18.69 7.65225C18.3796 6.5006 17.8465 5.44046 17.1395 4.52067L14.008 7.65225H18.69ZM1.31006 12.3479C1.62049 13.4995 2.15356 14.5597 2.86048 15.4794L5.99199 12.3479H1.31006ZM15.4794 2.86052C14.5596 2.15356 13.4995 1.62049 12.3478 1.31006V5.99206L15.4794 2.86052ZM4.52063 17.1395C5.44043 17.8465 6.50056 18.3795 7.65221 18.69V14.008L4.52063 17.1395ZM7.65218 1.31006C6.50053 1.62049 5.44039 2.15356 4.52063 2.86048L7.65218 5.99203V1.31006ZM12.3479 18.69C13.4995 18.3795 14.5596 17.8465 15.4794 17.1395L12.3479 14.008V18.69ZM14.008 12.3479L17.1395 15.4795C17.8465 14.5597 18.3796 13.4995 18.69 12.3479H14.008Z" fill="#0052B4"/>
<path d="M18.9238 8.8261H11.1739V1.07618C10.7847 1.02547 10.3925 1.00002 10 1C9.60207 1 9.21035 1.02616 8.8261 1.07618V8.82606H1.07618C1.02547 9.21532 1.00002 9.60745 1 10C1 10.3979 1.02616 10.7896 1.07618 11.1739H8.82606V18.9238C9.60538 19.0254 10.3946 19.0254 11.1739 18.9238V11.1739H18.9238C18.9745 10.7847 19 10.3925 19 10C19 9.60214 18.9738 9.21035 18.9238 8.8261Z" fill="#D80027"/>
<path d="M12.3479 12.3478L16.364 16.3639C16.5486 16.179 16.7251 15.9862 16.893 15.7861L13.4547 12.3477H12.3479V12.3478ZM7.6522 12.3478H7.65213L3.63605 16.3638C3.8209 16.5485 4.01368 16.725 4.21384 16.8929L7.6522 13.4544V12.3478ZM7.6522 7.65211V7.65204L3.63609 3.63589C3.45146 3.82074 3.27495 4.01352 3.10706 4.21369L6.54544 7.65207H7.6522V7.65211ZM12.3479 7.65211L16.364 3.63593C16.1792 3.45131 15.9864 3.27481 15.7862 3.10693L12.3479 6.54532V7.65211Z" fill="#D80027"/>
</svg>
