<svg width="20" height="20" viewBox="0 0 20 20" fill="none" xmlns="http://www.w3.org/2000/svg">
<g clip-path="url(#clip0_4779_80745)">
<path d="M10 19C14.9706 19 19 14.9706 19 10C19 5.02944 14.9706 1 10 1C5.02944 1 1 5.02944 1 10C1 14.9706 5.02944 19 10 19Z" fill="#F0F0F0"/>
<path d="M18.4402 13.1305C18.802 12.1555 19 11.1009 19 10C19 8.89916 18.802 7.84462 18.4402 6.86963H1.55979C1.19804 7.84462 1 8.89916 1 10C1 11.1009 1.19804 12.1555 1.55979 13.1305L10 13.9131L18.4402 13.1305Z" fill="#0052B4"/>
<path d="M10 19C13.8697 19 17.1686 16.5576 18.4402 13.1304H1.55981C2.83145 16.5576 6.13034 19 10 19Z" fill="#D80027"/>
</g>
<defs>
<clipPath id="clip0_4779_80745">
<rect width="18" height="18" fill="white" transform="translate(1 1)"/>
</clipPath>
</defs>
</svg>
